<svg xmlns="http://www.w3.org/2000/svg" xmlns:xlink="http://www.w3.org/1999/xlink" viewBox="0 0 393 154" width="393" height="154" preserveAspectRatio="xMidYMid meet" style="width: 100%; height: 100%; transform: translate3d(0px, 0px, 0px); content-visibility: visible;"><defs><clipPath id="__lottie_element_1303"><rect width="393" height="154" x="0" y="0"></rect></clipPath><symbol id="__lottie_element_1310"><g><g transform="matrix(1,0,0,1,196.5,77)" opacity="1" style="display: block;"><g opacity="1" transform="matrix(1,0,0,1,0,0)"><path stroke-linecap="round" stroke-linejoin="round" fill-opacity="0" stroke-dasharray=" 4" stroke-dashoffset="0" stroke="rgb(255,25,96)" stroke-opacity="1" stroke-width="2" d=" M-109.59700012207031,42.577999114990234 C-109.59700012207031,42.577999114990234 -109.59700012207031,-42.57899856567383 -109.59700012207031,-42.57899856567383 C-109.59700012207031,-42.57899856567383 150.91700744628906,-42.57899856567383 150.91700744628906,-42.57899856567383 C158.49899291992188,-42.57899856567383 164.64500427246094,-36.43199920654297 164.64500427246094,-28.850000381469727 C164.64500427246094,-28.850000381469727 164.64500427246094,28.850000381469727 164.64500427246094,28.850000381469727 C164.64500427246094,36.43199920654297 158.49899291992188,42.577999114990234 150.91700744628906,42.577999114990234 C150.91700744628906,42.577999114990234 -109.59700012207031,42.577999114990234 -109.59700012207031,42.577999114990234z"></path></g><g opacity="1" transform="matrix(1,0,0,1,0,0)"><path fill="rgb(255,67,67)" fill-opacity="1" d=" M147.9770050048828,35.63800048828125 C147.9770050048828,35.63800048828125 -102.65699768066406,35.63800048828125 -102.65699768066406,35.63800048828125 C-102.65699768066406,35.63800048828125 -102.65699768066406,-35.63800048828125 -102.65699768066406,-35.63800048828125 C-102.65699768066406,-35.63800048828125 147.9770050048828,-35.63800048828125 147.9770050048828,-35.63800048828125 C153.35000610351562,-35.63800048828125 157.7050018310547,-31.283000946044922 157.7050018310547,-25.90999984741211 C157.7050018310547,-25.90999984741211 157.7050018310547,25.90999984741211 157.7050018310547,25.90999984741211 C157.7050018310547,31.283000946044922 153.35000610351562,35.63800048828125 147.9770050048828,35.63800048828125z"></path></g></g></g></symbol><symbol id="__lottie_element_1319"><g><g transform="matrix(1,0,0,1,196.5,77)" opacity="1" style="display: block;"><g opacity="1" transform="matrix(1,0,0,1,0,0)"><path fill="rgb(255,67,67)" fill-opacity="1" d=" M-69.28600311279297,54.415000915527344 C-69.28600311279297,54.415000915527344 -151.1750030517578,54.415000915527344 -151.1750030517578,54.415000915527344 C-158.61399841308594,54.415000915527344 -164.64500427246094,48.382999420166016 -164.64500427246094,40.944000244140625 C-164.64500427246094,40.944000244140625 -164.64500427246094,-40.944000244140625 -164.64500427246094,-40.944000244140625 C-164.64500427246094,-48.382999420166016 -158.61399841308594,-54.415000915527344 -151.1750030517578,-54.415000915527344 C-151.1750030517578,-54.415000915527344 -69.28700256347656,-54.415000915527344 -69.28700256347656,-54.415000915527344 C-61.847999572753906,-54.415000915527344 -55.816001892089844,-48.382999420166016 -55.816001892089844,-40.944000244140625 C-55.816001892089844,-40.944000244140625 -55.816001892089844,40.944000244140625 -55.816001892089844,40.944000244140625 C-55.816001892089844,48.382999420166016 -61.84700012207031,54.415000915527344 -69.28600311279297,54.415000915527344z"></path></g></g></g></symbol><mask id="__lottie_element_1319_1" mask-type="alpha"><use xlink:href="#__lottie_element_1319"></use></mask><mask id="__lottie_element_1310_1" mask-type="alpha"><use xlink:href="#__lottie_element_1310"></use></mask></defs><g clip-path="url(#__lottie_element_1303)"><g transform="matrix(1,0,0,1,196.5,77)" opacity="1" style="display: block;"><g opacity="1" transform="matrix(1,0,0,1,0,0)"><path stroke-linecap="round" stroke-linejoin="round" fill-opacity="0" stroke-dasharray=" 4" stroke-dashoffset="0" stroke="rgb(255,25,96)" stroke-opacity="1" stroke-width="2" d=" M-109.59700012207031,42.577999114990234 C-109.59700012207031,42.577999114990234 -109.59700012207031,-42.57899856567383 -109.59700012207031,-42.57899856567383 C-109.59700012207031,-42.57899856567383 150.91700744628906,-42.57899856567383 150.91700744628906,-42.57899856567383 C158.49899291992188,-42.57899856567383 164.64500427246094,-36.43199920654297 164.64500427246094,-28.850000381469727 C164.64500427246094,-28.850000381469727 164.64500427246094,28.850000381469727 164.64500427246094,28.850000381469727 C164.64500427246094,36.43199920654297 158.49899291992188,42.577999114990234 150.91700744628906,42.577999114990234 C150.91700744628906,42.577999114990234 -109.59700012207031,42.577999114990234 -109.59700012207031,42.577999114990234z"></path></g><g opacity="1" transform="matrix(1,0,0,1,0,0)"><path fill="rgb(255,67,67)" fill-opacity="1" d=" M147.9770050048828,35.63800048828125 C147.9770050048828,35.63800048828125 -102.65699768066406,35.63800048828125 -102.65699768066406,35.63800048828125 C-102.65699768066406,35.63800048828125 -102.65699768066406,-35.63800048828125 -102.65699768066406,-35.63800048828125 C-102.65699768066406,-35.63800048828125 147.9770050048828,-35.63800048828125 147.9770050048828,-35.63800048828125 C153.35000610351562,-35.63800048828125 157.7050018310547,-31.283000946044922 157.7050018310547,-25.90999984741211 C157.7050018310547,-25.90999984741211 157.7050018310547,25.90999984741211 157.7050018310547,25.90999984741211 C157.7050018310547,31.283000946044922 153.35000610351562,35.63800048828125 147.9770050048828,35.63800048828125z"></path></g></g><g mask="url(#__lottie_element_1310_1)" style="display: block;"><g transform="matrix(1,0,0,1,366.58441162109375,77)" opacity="0.3"><g opacity="1" transform="matrix(1,0,0,1,0,0)"><path fill="rgb(255,255,255)" fill-opacity="1" d=" M-164,-79 C-164,-79 -219,77.5 -219,77.5 C-219,77.5 -180,78 -180,78 C-180,78 -121,-74 -121,-74 C-121,-74 -164,-79 -164,-79z"></path><path stroke-linecap="butt" stroke-linejoin="miter" fill-opacity="0" stroke-miterlimit="4" stroke="rgb(255,255,255)" stroke-opacity="1" stroke-width="0" d=" M-164,-79 C-164,-79 -219,77.5 -219,77.5 C-219,77.5 -180,78 -180,78 C-180,78 -121,-74 -121,-74 C-121,-74 -164,-79 -164,-79z"></path></g><g opacity="1" transform="matrix(1,0,0,1,-65,0)"><path fill="rgb(255,255,255)" fill-opacity="1" d=" M-164,-79 C-164,-79 -219,77.5 -219,77.5 C-219,77.5 -180,78 -180,78 C-180,78 -121,-74 -121,-74 C-121,-74 -164,-79 -164,-79z"></path><path stroke-linecap="butt" stroke-linejoin="miter" fill-opacity="0" stroke-miterlimit="4" stroke="rgb(255,255,255)" stroke-opacity="1" stroke-width="0" d=" M-164,-79 C-164,-79 -219,77.5 -219,77.5 C-219,77.5 -180,78 -180,78 C-180,78 -121,-74 -121,-74 C-121,-74 -164,-79 -164,-79z"></path></g></g></g><g transform="matrix(1,0,0,1,196.5,77)" opacity="1" style="display: block;"><g opacity="1" transform="matrix(1,0,0,1,0,0)"><path fill="rgb(255,67,67)" fill-opacity="1" d=" M-69.28600311279297,54.415000915527344 C-69.28600311279297,54.415000915527344 -151.1750030517578,54.415000915527344 -151.1750030517578,54.415000915527344 C-158.61399841308594,54.415000915527344 -164.64500427246094,48.382999420166016 -164.64500427246094,40.944000244140625 C-164.64500427246094,40.944000244140625 -164.64500427246094,-40.944000244140625 -164.64500427246094,-40.944000244140625 C-164.64500427246094,-48.382999420166016 -158.61399841308594,-54.415000915527344 -151.1750030517578,-54.415000915527344 C-151.1750030517578,-54.415000915527344 -69.28700256347656,-54.415000915527344 -69.28700256347656,-54.415000915527344 C-61.847999572753906,-54.415000915527344 -55.816001892089844,-48.382999420166016 -55.816001892089844,-40.944000244140625 C-55.816001892089844,-40.944000244140625 -55.816001892089844,40.944000244140625 -55.816001892089844,40.944000244140625 C-55.816001892089844,48.382999420166016 -61.84700012207031,54.415000915527344 -69.28600311279297,54.415000915527344z"></path></g></g><g mask="url(#__lottie_element_1319_1)" style="display: block;"><g transform="matrix(1,0,0,1,271.89227294921875,77)" opacity="0.3"><g opacity="1" transform="matrix(1,0,0,1,0,0)"><path fill="rgb(255,255,255)" fill-opacity="1" d=" M-164,-79 C-164,-79 -219,77.5 -219,77.5 C-219,77.5 -180,78 -180,78 C-180,78 -121,-74 -121,-74 C-121,-74 -164,-79 -164,-79z"></path><path stroke-linecap="butt" stroke-linejoin="miter" fill-opacity="0" stroke-miterlimit="4" stroke="rgb(255,255,255)" stroke-opacity="1" stroke-width="0" d=" M-164,-79 C-164,-79 -219,77.5 -219,77.5 C-219,77.5 -180,78 -180,78 C-180,78 -121,-74 -121,-74 C-121,-74 -164,-79 -164,-79z"></path></g><g opacity="1" transform="matrix(1,0,0,1,-65,0)"><path fill="rgb(255,255,255)" fill-opacity="1" d=" M-164,-79 C-164,-79 -219,77.5 -219,77.5 C-219,77.5 -180,78 -180,78 C-180,78 -121,-74 -121,-74 C-121,-74 -164,-79 -164,-79z"></path><path stroke-linecap="butt" stroke-linejoin="miter" fill-opacity="0" stroke-miterlimit="4" stroke="rgb(255,255,255)" stroke-opacity="1" stroke-width="0" d=" M-164,-79 C-164,-79 -219,77.5 -219,77.5 C-219,77.5 -180,78 -180,78 C-180,78 -121,-74 -121,-74 C-121,-74 -164,-79 -164,-79z"></path></g></g></g><g transform="matrix(0.9946904182434082,0.10291235893964767,-0.10291235893964767,0.9946904182434082,196.081298828125,88.28730773925781)" opacity="1" style="display: block;"><g opacity="1" transform="matrix(1,0,0,1,0,0)"><path fill="rgb(255,255,255)" fill-opacity="1" d=" M-94.9280014038086,26.892000198364258 C-94.9280014038086,26.892000198364258 -124.26599884033203,26.892000198364258 -124.26599884033203,26.892000198364258 C-126.08999633789062,26.892000198364258 -127.56800079345703,25.413999557495117 -127.56800079345703,23.59000015258789 C-127.56800079345703,23.59000015258789 -127.56800079345703,-2.686000108718872 -127.56800079345703,-2.686000108718872 C-127.56800079345703,-4.510000228881836 -126.08999633789062,-5.98799991607666 -124.26599884033203,-5.98799991607666 C-124.26599884033203,-5.98799991607666 -94.9280014038086,-5.98799991607666 -94.9280014038086,-5.98799991607666 C-93.10399627685547,-5.98799991607666 -91.6259994506836,-4.510000228881836 -91.6259994506836,-2.686000108718872 C-91.6259994506836,-2.686000108718872 -91.6259994506836,23.59000015258789 -91.6259994506836,23.59000015258789 C-91.6259994506836,25.413999557495117 -93.10399627685547,26.892000198364258 -94.9280014038086,26.892000198364258z"></path></g><g opacity="1" transform="matrix(1,0,0,1,0,0)"><path stroke-linecap="round" stroke-linejoin="round" fill-opacity="0" stroke="rgb(255,255,255)" stroke-opacity="1" stroke-width="2.496" d=" M-98.6729965209961,-1.8730000257492065 C-98.6729965209961,-1.8730000257492065 -120.52100372314453,-1.8730000257492065 -120.52100372314453,-1.8730000257492065 C-120.52100372314453,-1.8730000257492065 -120.52100372314453,-17.424999237060547 -120.52100372314453,-17.424999237060547 C-120.52100372314453,-20.902000427246094 -117.7020034790039,-23.72100067138672 -114.2249984741211,-23.72100067138672 C-114.2249984741211,-23.72100067138672 -104.96900177001953,-23.72100067138672 -104.96900177001953,-23.72100067138672 C-101.49199676513672,-23.72100067138672 -98.6729965209961,-20.902000427246094 -98.6729965209961,-17.424999237060547 C-98.6729965209961,-17.424999237060547 -98.6729965209961,-1.8730000257492065 -98.6729965209961,-1.8730000257492065z"></path></g><g opacity="1" transform="matrix(1,0,0,1,0,0)"><path fill="rgb(255,67,67)" fill-opacity="1" d=" M-105.38099670410156,7.035999774932861 C-105.38099670410156,4.706999778747559 -107.26899719238281,2.819999933242798 -109.59700012207031,2.819999933242798 C-111.9260025024414,2.819999933242798 -113.81300354003906,4.706999778747559 -113.81300354003906,7.035999774932861 C-113.81300354003906,8.560999870300293 -112.99600219726562,9.883999824523926 -111.78399658203125,10.625 C-111.78399658203125,10.625 -111.78399658203125,14.288000106811523 -111.78399658203125,14.288000106811523 C-111.78399658203125,15.496000289916992 -110.80500030517578,16.475000381469727 -109.59700012207031,16.475000381469727 C-108.38999938964844,16.475000381469727 -107.41000366210938,15.496000289916992 -107.41000366210938,14.288000106811523 C-107.41000366210938,14.288000106811523 -107.41000366210938,10.625 -107.41000366210938,10.625 C-106.197998046875,9.883999824523926 -105.38099670410156,8.560999870300293 -105.38099670410156,7.035999774932861z"></path></g></g><g fill="rgb(255,255,255)" font-size="28.9192199707031" font-family="Archivo Black" font-style="normal" font-weight="400" aria-label="LOGOUT" transform="matrix(1,0,0,1,171.40399169921875,86.07599639892578)" opacity="1" style="display: block;"><g stroke-linecap="butt" stroke-linejoin="round" stroke-miterlimit="4" transform="matrix(0.1655978113412857,0,0,0.29418331384658813,8.047441482543945,-17.31382942199707)" opacity="1" style="display: inherit;"><g><g transform="matrix(1,0,0,1,0,0)" opacity="1" style="display: block;"><path d=" M2.15,0 C2.15,0 2.15,-19.9 2.15,-19.9 C2.15,-19.9 8.53,-19.9 8.53,-19.9 C8.53,-19.9 8.53,-5.08 8.53,-5.08 C8.53,-5.08 18.74,-5.08 18.74,-5.08 C18.74,-5.08 18.74,0 18.74,0 C18.74,0 2.15,0 2.15,0z"></path><g opacity="1" transform="matrix(0.28919219970703125,0,0,0.28919219970703125,0,0)"></g></g></g></g><g stroke-linecap="butt" stroke-linejoin="round" stroke-miterlimit="4" transform="matrix(0.7118797898292542,0,0,-0.680611252784729,22.759485244750977,-41.22574234008789)" opacity="1" style="display: inherit;"><g><g transform="matrix(1,0,0,1,0,0)" opacity="1" style="display: block;"><path d=" M10.19,-15.14 C9.67,-14.91 9.23,-14.6 8.88,-14.19 C8.53,-13.79 8.27,-13.3 8.1,-12.74 C7.92,-12.17 7.84,-11.55 7.84,-10.87 C7.84,-10.87 7.84,-9.02 7.84,-9.02 C7.84,-8.35 7.92,-7.72 8.1,-7.16 C8.27,-6.59 8.53,-6.11 8.88,-5.7 C9.23,-5.3 9.67,-4.98 10.19,-4.76 C10.71,-4.53 11.33,-4.42 12.03,-4.42 C12.74,-4.42 13.35,-4.53 13.88,-4.76 C14.41,-4.98 14.85,-5.3 15.2,-5.7 C15.55,-6.11 15.82,-6.59 15.99,-7.16 C16.17,-7.72 16.25,-8.35 16.25,-9.02 C16.25,-9.02 16.25,-10.87 16.25,-10.87 C16.25,-11.55 16.17,-12.17 15.99,-12.74 C15.82,-13.3 15.55,-13.79 15.2,-14.19 C14.85,-14.6 14.41,-14.91 13.88,-15.14 C13.35,-15.36 12.74,-15.48 12.03,-15.48 C11.33,-15.48 10.71,-15.36 10.19,-15.14z M16.58,-19.59 C17.91,-19.15 19.04,-18.51 19.96,-17.64 C20.88,-16.78 21.58,-15.71 22.06,-14.42 C22.55,-13.14 22.79,-11.65 22.79,-9.96 C22.79,-8.25 22.55,-6.76 22.06,-5.47 C21.58,-4.19 20.88,-3.11 19.96,-2.25 C19.04,-1.39 17.91,-0.74 16.58,-0.3 C15.24,0.13 13.73,0.35 12.03,0.35 C10.34,0.35 8.82,0.13 7.49,-0.3 C6.16,-0.74 5.03,-1.39 4.12,-2.25 C3.2,-3.11 2.5,-4.19 2.02,-5.47 C1.54,-6.76 1.3,-8.25 1.3,-9.96 C1.3,-11.65 1.54,-13.14 2.02,-14.42 C2.5,-15.71 3.2,-16.78 4.12,-17.64 C5.03,-18.51 6.16,-19.15 7.49,-19.59 C8.82,-20.03 10.34,-20.25 12.03,-20.25 C13.73,-20.25 15.24,-20.03 16.58,-19.59z"></path><g opacity="1" transform="matrix(0.28919219970703125,0,0,0.28919219970703125,0,0)"></g></g></g></g><g stroke-linecap="butt" stroke-linejoin="round" stroke-miterlimit="4" transform="matrix(1,0,0,-0.9747945666313171,43.37882995605469,-48.44212341308594)" opacity="1" style="display: inherit;"><g><g transform="matrix(1,0,0,1,0,0)" opacity="1" style="display: block;"><path d=" M16.08,-19.77 C17.3,-19.45 18.38,-18.97 19.3,-18.34 C20.21,-17.71 20.94,-16.93 21.47,-15.98 C22,-15.04 22.27,-13.95 22.27,-12.69 C22.27,-12.69 16.17,-12.69 16.17,-12.69 C16.17,-13.12 16.07,-13.5 15.86,-13.85 C15.66,-14.19 15.39,-14.48 15.05,-14.72 C14.7,-14.96 14.3,-15.15 13.85,-15.28 C13.4,-15.41 12.92,-15.48 12.41,-15.48 C10.9,-15.48 9.76,-15.07 8.99,-14.26 C8.22,-13.45 7.84,-12.32 7.84,-10.87 C7.84,-10.87 7.84,-9.02 7.84,-9.02 C7.84,-7.57 8.22,-6.44 8.99,-5.63 C9.76,-4.82 10.9,-4.42 12.41,-4.42 C12.92,-4.42 13.4,-4.48 13.85,-4.61 C14.3,-4.74 14.7,-4.92 15.05,-5.15 C15.39,-5.38 15.66,-5.66 15.86,-5.98 C16.07,-6.3 16.17,-6.67 16.17,-7.06 C16.17,-7.06 11.65,-7.06 11.65,-7.06 C11.65,-7.06 11.65,-11.1 11.65,-11.1 C11.65,-11.1 22.27,-11.1 22.27,-11.1 C22.27,-11.1 22.27,0 22.27,0 C22.27,0 18.96,0 18.96,0 C18.96,0 18.33,-1.96 18.33,-1.96 C17.42,-1.2 16.4,-0.62 15.24,-0.23 C14.09,0.16 12.75,0.35 11.23,0.35 C7.91,0.35 5.43,-0.51 3.78,-2.25 C2.13,-3.98 1.3,-6.55 1.3,-9.96 C1.3,-11.65 1.54,-13.14 2.03,-14.42 C2.51,-15.71 3.22,-16.78 4.14,-17.64 C5.07,-18.51 6.21,-19.15 7.55,-19.59 C8.89,-20.03 10.42,-20.25 12.14,-20.25 C13.54,-20.25 14.85,-20.09 16.08,-19.77z"></path><g opacity="1" transform="matrix(0.28919219970703125,0,0,0.28919219970703125,0,0)"></g></g></g></g><g stroke-linecap="butt" stroke-linejoin="round" stroke-miterlimit="4" transform="matrix(1,0,0,-0.29418331384658813,67.46853637695312,-31.746585845947266)" opacity="1" style="display: inherit;"><g><g transform="matrix(1,0,0,1,0,0)" opacity="1" style="display: block;"><path d=" M10.19,-15.14 C9.67,-14.91 9.23,-14.6 8.88,-14.19 C8.53,-13.79 8.27,-13.3 8.1,-12.74 C7.92,-12.17 7.84,-11.55 7.84,-10.87 C7.84,-10.87 7.84,-9.02 7.84,-9.02 C7.84,-8.35 7.92,-7.72 8.1,-7.16 C8.27,-6.59 8.53,-6.11 8.88,-5.7 C9.23,-5.3 9.67,-4.98 10.19,-4.76 C10.71,-4.53 11.33,-4.42 12.03,-4.42 C12.74,-4.42 13.35,-4.53 13.88,-4.76 C14.41,-4.98 14.85,-5.3 15.2,-5.7 C15.55,-6.11 15.82,-6.59 15.99,-7.16 C16.17,-7.72 16.25,-8.35 16.25,-9.02 C16.25,-9.02 16.25,-10.87 16.25,-10.87 C16.25,-11.55 16.17,-12.17 15.99,-12.74 C15.82,-13.3 15.55,-13.79 15.2,-14.19 C14.85,-14.6 14.41,-14.91 13.88,-15.14 C13.35,-15.36 12.74,-15.48 12.03,-15.48 C11.33,-15.48 10.71,-15.36 10.19,-15.14z M16.58,-19.59 C17.91,-19.15 19.04,-18.51 19.96,-17.64 C20.88,-16.78 21.58,-15.71 22.06,-14.42 C22.55,-13.14 22.79,-11.65 22.79,-9.96 C22.79,-8.25 22.55,-6.76 22.06,-5.47 C21.58,-4.19 20.88,-3.11 19.96,-2.25 C19.04,-1.39 17.91,-0.74 16.58,-0.3 C15.24,0.13 13.73,0.35 12.03,0.35 C10.34,0.35 8.82,0.13 7.49,-0.3 C6.16,-0.74 5.03,-1.39 4.12,-2.25 C3.2,-3.11 2.5,-4.19 2.02,-5.47 C1.54,-6.76 1.3,-8.25 1.3,-9.96 C1.3,-11.65 1.54,-13.14 2.02,-14.42 C2.5,-15.71 3.2,-16.78 4.12,-17.64 C5.03,-18.51 6.16,-19.15 7.49,-19.59 C8.82,-20.03 10.34,-20.25 12.03,-20.25 C13.73,-20.25 15.24,-20.03 16.58,-19.59z"></path><g opacity="1" transform="matrix(0.28919219970703125,0,0,0.28919219970703125,0,0)"></g></g></g></g><g stroke-linecap="butt" stroke-linejoin="round" stroke-miterlimit="4" transform="matrix(1,0,0,0.680611252784729,91.5582504272461,-7.834671974182129)" opacity="1" style="display: inherit;"><g><g transform="matrix(1,0,0,1,0,0)" opacity="1" style="display: block;"><path d=" M21.94,-8.01 C21.94,-6.63 21.72,-5.42 21.28,-4.38 C20.84,-3.34 20.19,-2.47 19.35,-1.77 C18.5,-1.07 17.46,-0.54 16.24,-0.18 C15.01,0.17 13.62,0.35 12.06,0.35 C10.5,0.35 9.1,0.17 7.87,-0.18 C6.64,-0.54 5.61,-1.07 4.76,-1.77 C3.91,-2.47 3.26,-3.34 2.82,-4.38 C2.37,-5.42 2.15,-6.63 2.15,-8.01 C2.15,-8.01 2.15,-19.9 2.15,-19.9 C2.15,-19.9 8.53,-19.9 8.53,-19.9 C8.53,-19.9 8.53,-8.09 8.53,-8.09 C8.53,-7.55 8.6,-7.06 8.75,-6.62 C8.89,-6.17 9.11,-5.78 9.4,-5.46 C9.7,-5.13 10.06,-4.88 10.5,-4.7 C10.94,-4.51 11.45,-4.42 12.03,-4.42 C12.61,-4.42 13.13,-4.51 13.57,-4.7 C14.01,-4.88 14.38,-5.13 14.68,-5.46 C14.97,-5.78 15.2,-6.17 15.34,-6.62 C15.49,-7.06 15.56,-7.55 15.56,-8.09 C15.56,-8.09 15.56,-19.9 15.56,-19.9 C15.56,-19.9 21.94,-19.9 21.94,-19.9 C21.94,-19.9 21.94,-8.01 21.94,-8.01z"></path><g opacity="1" transform="matrix(0.28919219970703125,0,0,0.28919219970703125,0,0)"></g></g></g></g><g stroke-linecap="butt" stroke-linejoin="round" stroke-miterlimit="4" transform="matrix(1,0,0,1,115.64796447753906,0)" opacity="1" style="display: inherit;"><g><g transform="matrix(1,0,0,1,0,0)" opacity="1" style="display: block;"><path d=" M20.09,-14.81 C20.09,-14.81 13.6,-14.81 13.6,-14.81 C13.6,-14.81 13.6,0 13.6,0 C13.6,0 7.2,0 7.2,0 C7.2,0 7.2,-14.81 7.2,-14.81 C7.2,-14.81 0.66,-14.81 0.66,-14.81 C0.66,-14.81 0.66,-19.9 0.66,-19.9 C0.66,-19.9 20.09,-19.9 20.09,-19.9 C20.09,-19.9 20.09,-14.81 20.09,-14.81z"></path><g opacity="1" transform="matrix(0.28919219970703125,0,0,0.28919219970703125,0,0)"></g></g></g></g></g></g></svg>